<svg xmlns="http://www.w3.org/2000/svg" preserveAspectRatio="xMidYMid" width="1920" height="360"><path d="M0 360s-.037-134.717-.037-189.878c28.771-3.158 61.598-23.927 98.309-25.36 45.625-1.78 114.666 26.89 141.87 10.042C267.345 137.955 362.184 35.589 390.61 51.518c28.425 15.929 96.604 97.023 187.727 101.851 91.122 4.829 48.022-10.285 140.437 0 92.414 10.285 157.343 17.836 204.923 1.435 47.58-16.401 76.499-29.628 104.611-22.953 28.112 6.676 86.055 41.376 170.53 28.691 84.476-12.685 151.995-26.079 193.459-15.78 41.465 10.299 73.197 20.7 96.013 11.476 22.817-9.223 32.589-32.68 81.683-28.69 49.094 3.99 102.91 19.933 133.007 1.452 30.097-18.481 46.945-37.179 91-58 43.498-20.557 60.653-22.018 61-5 .908 44.553-.337 116.873 65 104v190H0z" fill-rule="evenodd" fill="#14355b"/><path d="M126.938 132.207v34.356h-5.719v-34.356h-20.078L124.07 2l24.362 130.207h-21.494zm1262.999 0v34.356h-5.718v-34.356h-20.078L1387.07 72l24.362 60.207h-21.495zm274.001-7v34.356h-5.719v-34.356h-30.078L1661.07 55l34.362 70.207h-31.494zm-972.001 17v34.356h-5.718v-34.356h-30.078L689.07 82l34.362 60.207h-31.495zm754.001 0v34.356h-5.719v-34.356h-20.078L1443.07 72l24.362 70.207h-21.494zm-827.001-10v34.356h-5.718v-34.356h-20.078L616.07 52l24.362 80.207h-21.495zM211.5 144.516v34.328h-5.75v-34.328h-48.72L208.62 0l53.023 144.516H211.5zm1071-10v34.328h-5.75v-34.328h-48.72L1279.62 20l53.023 114.516H1282.5z" fill-rule="evenodd" fill="#14345b"/></svg>