<svg xmlns="http://www.w3.org/2000/svg" preserveAspectRatio="xMidYMid" width="160.406" height="66.125"><path d="M154.15 37.107V16.424h6.271v20.683h-6.271zm-8.723 0h-11.052V16.424h6.271v6.512h4.781c4.842 0 7.45 3.225 7.45 7.069 0 3.877-2.608 7.102-7.45 7.102zm-.807-8.714h-3.974v3.256h3.974c1.055 0 1.894-.527 1.894-1.644 0-1.085-.839-1.612-1.894-1.612zm-13.026 30.875l-3.752-3.752 3.752-3.752 3.752 3.752-3.752 3.752zm-6.839-30.069h-7.42v7.908h-6.271V16.424h6.271v7.318h7.42v-7.318h6.27v20.683h-6.27v-7.908zm-22.039 7.908H92.441v3.279H86.17v-8.427c1.863-.341 3.074-1.178 3.57-5.116l1.274-10.419h16.173v15.225h1.8v8.737h-6.271v-3.279zm-1.8-15.226h-4.253l-.683 5.427c-.217 1.83-.962 3.256-2.018 4.341h6.954v-9.768zm3.203-12.362h-3.712v-3.98L96.698-.015h3.975l1.591 2.938 1.591-2.938h3.976l-3.712 5.554v3.98zm-10.2 0h-6.363V-.015h6.098c2.916 0 3.477 3.819 1.282 4.658 2.603.551 2.695 4.876-1.017 4.876zm-1.692-7.416h-1.224v1.589h1.224c1.194 0 1.194-1.589 0-1.589zm.266 3.443h-1.49V7.4h1.49c1.325 0 1.325-1.854 0-1.854zm-8.119 4.378a1.667 1.667 0 0 1-1.669-1.666 1.667 1.667 0 0 1 3.336 0c0 .92-.746 1.666-1.667 1.666zm-3.183-.405h-3.712V2.898h-2.651V-.015h9.014v2.913h-2.651v6.621zm-13.013.529c-3.294 0-5.047-1.894-5.047-3.973v-6.09h3.756v2.913h-1.945l3.236 4.37 3.237-4.37h-1.912V-.015h3.726v6.09c0 2.079-1.925 3.973-5.051 3.973zM56.559 21.881h-4.253l-.683 5.427c-.993 8.155-4.998 10.171-9.809 10.171v-5.52c1.769 0 3.073-1.178 3.57-5.116l1.273-10.419H62.83v20.683h-6.271V21.881zm2.328-12.362h-3.712V2.898h-2.652V-.015h9.015v2.913h-2.651v6.621zM33.899 34.688h-7.45l-.745 2.419H12.078L7.422 29.82l-1.149 1.55v5.737H.002V16.424h6.271v7.752l5.433-7.752h7.668l-7.823 9.612 7.418 10.058 7.263-19.67h7.885l7.637 20.683h-7.109l-.746-2.419zm-3.725-12.125l-2.049 6.668h4.098l-2.049-6.668zM7.999 55.516l-3.752 3.752-3.752-3.752 3.752-3.752 3.752 3.752zm12.205 0l-3.752 3.752-3.752-3.752 3.752-3.752 3.752 3.752zm12.204 0l-3.752 3.752-3.752-3.752 3.752-3.752 3.752 3.752zm16.589-10.763c5.453 0 8.195 3.16 9.442 6.01l-5.423 2.509c-.529-1.61-2.149-3.004-4.019-3.004-3.023 0-5.048 2.292-5.048 5.173 0 2.881 2.025 5.173 5.048 5.173 1.87 0 3.49-1.394 4.019-3.005l5.423 2.479c-1.216 2.757-3.989 6.041-9.442 6.041-6.513 0-11.436-4.337-11.436-10.688 0-6.382 4.923-10.688 11.436-10.688zm13.615 10.75l1.277-10.409h16.235v20.663h-6.295V50.546h-4.268l-.686 5.421c-.998 8.148-5.017 10.162-9.847 10.162v-5.515c1.776 0 3.085-1.177 3.584-5.111zm10.212-39.079h11.051v20.683h-6.271v-6.512h-2.265l-2.857 6.512h-7.14l3.756-7.319c-1.645-.806-3.725-2.697-3.725-6.263 0-3.876 2.608-7.101 7.451-7.101zm.962 8.713h3.818v-3.256h-3.818c-1.056 0-2.049.497-2.049 1.613 0 1.147.993 1.643 2.049 1.643zm19.953 19.616c6.419 0 11.374 4.337 11.374 10.688 0 6.351-4.955 10.688-11.374 10.688-6.419 0-11.374-4.337-11.374-10.688 0-6.351 4.955-10.688 11.374-10.688zm0 15.861c3.023 0 4.986-2.292 4.986-5.173 0-2.881-1.963-5.173-4.986-5.173-3.022 0-4.986 2.292-4.986 5.173 0 2.881 1.964 5.173 4.986 5.173zm29.289-10.068h-5.547v15.211h-6.294V50.546h-5.577v-5.452h17.418v5.452zm24.522 4.97l-3.752 3.752-3.752-3.752 3.752-3.752 3.752 3.752zm12.205 0l-3.752 3.752-3.752-3.752 3.752-3.752 3.752 3.752z" fill="#e13c3a" fill-rule="evenodd"/></svg>