<svg version="1.1" id="Layer_1" xmlns="http://www.w3.org/2000/svg" x="0" y="0" viewBox="0 0 1920 1080" xml:space="preserve"><style>.st1{fill:#febb1d}.st2{fill:#194074}.st3{fill:#fff}</style><path fill="#e03c3a" d="M1247.9 539.5l202.6-202.6h-287.4V49.5L960.5 252.1 757.9 49.5v287.4H470.5l202.6 202.6-202.6 202.6h287.4v287.4l202.6-202.6 202.6 202.6V742.1h287.4z"/><path class="st1" d="M1221 540l184-184h-261V95L960 279 776 95v261H515l184 184-184 184h261v261l184-184 184 184V724h261z"/><path class="st2" d="M1147.7 540L1280 407.7h-187.7V220L960 352.3 827.7 220v187.7H640L772.3 540 640 672.3h187.7V860L960 727.7 1092.3 860V672.3H1280zm-364 409.2l8.5-3.5 3.5 8.5-8.5 3.5-3.5-8.5zm7.8-33.2l15.6-6.4 6.4 15.6-15.6 6.4-6.4-15.6z"/><path class="st2" d="M802.8 869.3l25.5-10.5 10.5 25.5-25.5 10.5-10.5-25.5zm333.5-738.5l-8.5 3.5-3.5-8.5 8.5-3.5 3.5 8.5zm-7.8 33.2l-15.6 6.4-6.4-15.6 15.6-6.4 6.4 15.6zm-11.4 46.7l-25.5 10.5-10.5-25.5 25.5-10.5 10.5 25.5zM546 704.7l8.5 3.5-3.5 8.5-8.5-3.5 3.5-8.5zm29-18l15.6 6.4-6.4 15.6-15.6-6.4 6.4-15.6zm41-25l25.5 10.5-10.5 25.5-25.5-10.5 10.5-25.5zm758-286.4l-8.5-3.5 3.5-8.5 8.5 3.5-3.5 8.5zm-29 18l-15.6-6.4 6.4-15.6 15.6 6.4-6.4 15.6zm-41.1 25l-25.5-10.5 10.5-25.5 25.5 10.5-10.5 25.5zm-753.1-54.6l3.5 8.5-8.5 3.5-3.5-8.5 8.5-3.5zm33.2 7.8l6.4 15.6-15.6 6.4-6.4-15.6 15.6-6.4zm46.7 11.3l10.5 25.5-25.5 10.5-10.5-25.5 25.5-10.5zm738.5 333.5l-3.5-8.5 8.5-3.5 3.5 8.5-8.5 3.5zm-33.2-7.8l-6.4-15.6 15.6-6.4 6.4 15.6-15.6 6.4zm-46.7-11.4l-10.5-25.5 25.5-10.5 10.5 25.5-25.5 10.5zM795.3 126l-3.5 8.5-8.5-3.5 3.5-8.5 8.5 3.5zm18 29l-6.4 15.6-15.6-6.4 6.4-15.6 15.6 6.4zm25 41l-10.5 25.5-25.5-10.5 10.5-25.5 25.5 10.5zm286.4 758l3.5-8.5 8.5 3.5-3.5 8.5-8.5-3.5zm-18-29l6.4-15.6 15.6 6.4-6.4 15.6-15.6-6.4zm-25-41.1l10.5-25.5 25.5 10.5-10.5 25.5-25.5-10.5z"/><path class="st1" d="M1067.3 277.7l3.7 1.5-218.3 525-3.7-1.5 218.3-525zM835.4 817.2l11.5-4.8 4.7 11.5-11.5 4.8-4.7-11.5zm249.2-554.4l-11.5 4.8-4.7-11.5 11.5-4.8 4.7 11.5z"/><path class="st1" d="M1221.3 430.4l1.5 3.7L697.3 651l-1.5-3.7 525.5-216.9zM675.9 647.9l11.5 4.7-4.8 11.5-11.5-4.7 4.8-11.5zm568.2-215.8l-11.5-4.7 4.8-11.5 11.5 4.7-4.8 11.5z"/><path class="st1" d="M1222.3 647.3l-1.5 3.7-525-218.3 1.5-3.7 525 218.3zM682.8 415.4l4.8 11.5-11.5 4.7-4.8-11.5 11.5-4.7zm554.4 249.2l-4.8-11.5 11.5-4.7 4.8 11.5-11.5 4.7z"/><path class="st1" d="M1069.6 801.3l-3.7 1.5L849 277.3l3.7-1.5 216.9 525.5zM852.1 255.9l-4.7 11.5-11.5-4.8 4.7-11.5 11.5 4.8zm215.8 568.2l4.7-11.5 11.5 4.8-4.7 11.5-11.5-4.8z"/><path class="st2" d="M903.8 292.5v4h5V309h15v-10.5c0 5.7 4.6 11.5 13.5 11.5 3.7 0 7-1.1 9.5-3.2s4-5.1 4-8.3v-2V309h13.8c1 .5 2 .8 3.2.8 1.1 0 2.2-.3 3.2-.8h14.8c4.1 0 6.8-1.8 8.2-4.2v4.2h15v-10.3l6.3-9.5 4.2-6.2h-17.4l-.6 1.1-.6-1.1h-97.1v9.5zM824.7 361v-7.4l3.6 5.6 1.2 1.8h30.8l.9-2.8.5-1.7h8.1l.5 1.7.9 2.8h12.5v.7h4c13.3 0 20.6-7.4 22.5-22.7l.8-6.7h.5V361H948l1-2.4 2-4.5v6.9h16.1v6.2H987V361h11.4v6.2h19.8V361h15.7v-14.9h6V361h43c5 0 9.3-1.6 12.4-4.3v4.3h19.8v-47h-19.8v16.6c-3.1-2.7-7.4-4.3-12.4-4.3h-5V314H1040v13.8h-6V314h-57.1l-2.8 23.2c-.7 5.2-1.7 5.8-3.1 6.1V314h-24.8c-6.4 0-11.7 2.6-14.8 7v-7h-38l-.4 3.5-2.4 19.6c-.5 3.6-1.2 5.1-1.7 5.6-.3.3-.4.5-1.1.5h-.9l-11-29.2h-20.4l-12.1 32.7-7.7-10.5 18.1-22.2h-24.9l-4.2 5.9V314h-19.8v47h19.8zm168.2-18.3c.4-1.2.7-2.4.8-3.7l.8-6.7h.5v10.4h-2.1zm-59 1.8l-2.6 5.1v-8c.7 1.1 1.6 2.1 2.6 2.9zm110.8 23.5h-40.8v6.4l-.4-.4c-4.7-4.3-11-6.6-18-6.6-6.9 0-13.3 2.4-18 6.6-1.4 1.3-2.7 2.8-3.7 4.4V368h-38.1l-1.9 15.7-1.1-2.6c-2.2-5.1-8-13.7-21.5-13.7-14.8 0-25.6 10.2-25.6 24.1 0 14 10.7 24.1 25.6 24.1 6.7 0 11.5-2.3 14.9-5.1v5.1h4c13.3 0 20.7-7.4 22.5-22.7l.8-6.7h.5V415h19.9v-10.3c1 1.6 2.3 3.1 3.7 4.4 4.7 4.3 11 6.6 18 6.6s13.3-2.4 18-6.6c4.8-4.4 7.5-10.6 7.5-17.5 0-1.8-.2-3.5-.5-5.2h4V415h19.9v-28.7h10.5V368h-.2zm-143.5 17.8c1.8 0 3.3 1.5 3.8 2.9l.9 2.8-.9 2.8c-.5 1.4-2 2.9-3.8 2.9-3.8 0-5.5-2.9-5.5-5.7 0-2.8 1.7-5.7 5.5-5.7zm22.4-.8l-.8 6.2c-.5 3.6-1.2 5.1-1.8 5.7l-.4-.2-10.2-4.7-1-.4 1-.5 10.2-4.7 3-1.4zm61.9.8c2.7 0 5.4 1.8 5.4 5.8s-2.7 5.7-5.4 5.7-5.4-1.8-5.4-5.7c0-4.1 2.7-5.8 5.4-5.8zm127.2 3l-7-7-2.9-2.9-2.8 2.9-7.1 7-1.6 1.6-1.6-1.6-7-7-2.9-2.9-2.8 2.9-7.1 7-1.6 1.6-1.6-1.6-7-7-2.9-2.9-2.8 2.9-7.1 7-2.8 2.9 2.8 2.8 7.1 7.1 2.8 2.8 2.9-2.8 7-7.1 1.6-1.6 1.6 1.6 7.1 7.1 2.8 2.8 2.9-2.8 7-7.1 1.6-1.6 1.6 1.6 7.1 7.1 2.8 2.8 2.9-2.8 7-7.1 2.9-2.8zm-247-7l-2.9-2.9-2.8 2.9-7.1 7-1.6 1.6-1.6-1.6-7-7-2.9-2.9-2.8 2.9-7.1 7-1.6 1.6-1.6-1.6-7-7-2.9-2.9-2.8 2.9-7.1 7-2.8 2.9 2.8 2.8 7.1 7.1 2.8 2.8 2.9-2.8 7-7.1 1.6-1.6 1.6 1.6 7.1 7.1 2.8 2.8 2.9-2.8 7-7.1 1.6-1.6 1.6 1.6 7.1 7.1 2.8 2.8 2.9-2.8 7-7.1 2.9-2.8-2.9-2.9z"/><path class="st3" d="M924.8 292.5V287h-17v5.5h5V305h7v-12.5h5zm42 0V287h-17v5.5h5V305h7v-12.5h5zm7-5.5h11.5c5.5 0 6.6 7.2 2.4 8.8 4.9 1 5.1 9.2-1.9 9.2h-12v-18zm6.5 7h2.3c2.2 0 2.2-3 0-3h-2.3v3zm0 7h2.8c2.5 0 2.5-3.5 0-3.5h-2.8v3.5zm24.8-3.5l7-10.5h-7.5l-3 5.5-3-5.5h-7.5l7 10.5v7.5h7v-7.5zm-37.3 2c1.7 0 3.1 1.4 3.1 3.1s-1.4 3.1-3.1 3.1c-1.7 0-3.1-1.4-3.1-3.1s1.4-3.1 3.1-3.1zm-21-12.5h-7v5.5h3.6l-6.1 8.2-6.1-8.2h3.7V287h-7.1v11.5c0 3.9 3.3 7.5 9.5 7.5 5.9 0 9.5-3.6 9.5-7.5V287zm-115.2 70l-8.8-13.7-2.2 2.9V357h-11.8v-39h11.8v14.6l10.2-14.6h14.5l-14.7 18.1L846 357h-14.4z"/><path class="st3" d="M874.1 357l-1.4-4.6h-14l-1.4 4.6h-13.4l14.4-39h14.9l14.4 39h-13.5zm-8.4-27.4l-3.9 12.6h7.7l-3.8-12.6zm21.9 17.7c3.3 0 5.8-2.2 6.7-9.6l2.4-19.6h30.5v39h-11.8v-28.7h-8l-1.3 10.2c-1.9 15.4-9.4 19.2-18.5 19.2v-10.5zM932 357l7.1-13.8c-3.1-1.5-7-5.1-7-11.8 0-7.3 4.9-13.4 14-13.4h20.8v39h-11.8v-12.3h-4.3l-5.4 12.3H932zm23.1-22.6v-6.1h-7.2c-2 0-3.9.9-3.9 3 0 2.2 1.9 3.1 3.9 3.1h7.2zm16.1 12.9c3.5-.6 5.8-2.2 6.7-9.6l2.4-19.6h30.5v28.7h3.4v16.5h-11.8V357H983v6.2h-11.8v-15.9zm14.7-.6H999v-18.4h-8l-1.3 10.2c-.4 3.4-1.8 6.1-3.8 8.2zm58 10.3v-14.9h-14V357h-11.8v-39h11.8v13.8h14V318h11.8v39h-11.8zm30-39v12.3h9c9.1 0 14 6.1 14 13.3 0 7.3-4.9 13.4-14 13.4h-20.8v-39h11.8zm0 22.5v6.1h7.5c2 0 3.6-1 3.6-3.1 0-2-1.6-3-3.6-3h-7.5zm25.4 16.5v-39h11.8v39h-11.8zm-219.7 34.5c0-12 9.3-20.1 21.6-20.1 10.3 0 15.4 6 17.8 11.3l-10.2 4.7c-1-3-4.1-5.7-7.6-5.7-5.7 0-9.5 4.3-9.5 9.8 0 5.4 3.8 9.7 9.5 9.7 3.5 0 6.6-2.6 7.6-5.7l10.2 4.7c-2.3 5.2-7.5 11.4-17.8 11.4-12.3.1-21.6-8.1-21.6-20.1zm40.5 9.8c3.3 0 5.8-2.2 6.8-9.6l2.4-19.6h30.6V411H948v-28.7h-8l-1.3 10.2c-1.9 15.4-9.5 19.1-18.6 19.1v-10.3zm44-9.8c0-12 9.3-20.1 21.4-20.1 12.1 0 21.4 8.2 21.4 20.1 0 12-9.3 20.1-21.4 20.1-12.1.1-21.4-8.1-21.4-20.1zm30.8 0c0-5.4-3.7-9.8-9.4-9.8s-9.4 4.3-9.4 9.8c0 5.4 3.7 9.7 9.4 9.7 5.7.1 9.4-4.3 9.4-9.7zm23.5 19.5v-28.7h-10.5V372h32.8v10.3h-10.5V411h-11.8zm38.4-26.4l7.1 7.1-7.1 7.1-7.1-7.1 7.1-7.1zm23 0l7.1 7.1-7.1 7.1-7.1-7.1 7.1-7.1zm23 0l7.1 7.1-7.1 7.1-7.1-7.1 7.1-7.1zm-286 0l7.1 7.1-7.1 7.1-7.1-7.1 7.1-7.1zm23 0l7.1 7.1-7.1 7.1-7.1-7.1 7.1-7.1zm23 0l7.1 7.1-7.1 7.1-7.1-7.1 7.1-7.1z"/></svg>