<svg xmlns="http://www.w3.org/2000/svg" xmlns:xlink="http://www.w3.org/1999/xlink" preserveAspectRatio="xMidYMid" width="1920" height="360" viewBox="0 0 1920 360">
  <defs>
    <style>
      .cls-1 {
        fill: #14355b;
      }

      .cls-1, .cls-2 {
        fill-rule: evenodd;
      }

      .cls-2 {
        fill: #14345b;
      }
    </style>
  </defs>
  <g>
    <path d="M-0.000,360.000 C-0.000,360.000 -0.037,225.283 -0.037,170.122 C28.734,166.964 61.561,146.195 98.272,144.762 C143.897,142.982 212.938,171.652 240.142,154.804 C267.345,137.955 362.184,35.589 390.610,51.518 C419.035,67.447 487.214,148.541 578.337,153.369 C669.459,158.198 626.359,143.084 718.774,153.369 C811.188,163.654 876.117,171.205 923.697,154.804 C971.277,138.403 1000.196,125.176 1028.308,131.851 C1056.420,138.527 1114.363,173.227 1198.838,160.542 C1283.314,147.857 1350.833,134.463 1392.297,144.762 C1433.762,155.061 1465.494,165.462 1488.310,156.238 C1511.127,147.015 1520.899,123.558 1569.993,127.548 C1619.087,131.538 1672.903,147.481 1703.000,129.000 C1733.097,110.519 1749.945,91.821 1794.000,71.000 C1837.498,50.443 1854.653,48.982 1855.000,66.000 C1855.908,110.553 1854.663,182.873 1920.000,170.000 C1920.000,209.202 1920.000,360.000 1920.000,360.000 L-0.000,360.000 Z" class="cls-1"/>
    <path d="M126.938,132.207 L126.938,166.563 L121.219,166.563 L121.219,132.207 L101.141,132.207 L124.070,2.000 L148.432,132.207 L126.938,132.207 Z" class="cls-2"/>
    <path d="M1389.937,132.207 L1389.937,166.563 L1384.219,166.563 L1384.219,132.207 L1364.141,132.207 L1387.070,72.000 L1411.432,132.207 L1389.937,132.207 Z" class="cls-2"/>
    <path d="M1663.938,125.207 L1663.938,159.563 L1658.219,159.563 L1658.219,125.207 L1628.141,125.207 L1661.070,55.000 L1695.432,125.207 L1663.938,125.207 Z" class="cls-2"/>
    <path d="M691.937,142.207 L691.937,176.563 L686.219,176.563 L686.219,142.207 L656.141,142.207 L689.070,82.000 L723.432,142.207 L691.937,142.207 Z" class="cls-2"/>
    <path d="M1445.938,142.207 L1445.938,176.563 L1440.219,176.563 L1440.219,142.207 L1420.141,142.207 L1443.070,72.000 L1467.432,142.207 L1445.938,142.207 Z" class="cls-2"/>
    <path d="M618.937,132.207 L618.937,166.563 L613.219,166.563 L613.219,132.207 L593.141,132.207 L616.070,52.000 L640.432,132.207 L618.937,132.207 Z" class="cls-2"/>
    <path d="M211.500,144.516 L211.500,178.844 L205.750,178.844 L205.750,144.516 L157.030,144.516 L208.620,0.000 L261.643,144.516 L211.500,144.516 Z" class="cls-2"/>
    <path d="M1282.500,134.516 L1282.500,168.844 L1276.750,168.844 L1276.750,134.516 L1228.030,134.516 L1279.620,20.000 L1332.643,134.516 L1282.500,134.516 Z" class="cls-2"/>
  </g>
</svg>
