<svg xmlns="http://www.w3.org/2000/svg" xmlns:xlink="http://www.w3.org/1999/xlink" preserveAspectRatio="xMidYMid" width="16.063" height="16.031" viewBox="0 0 16.063 16.031">
  <defs>
    <style>
      .cls-1 {
        fill: #163c6d;
        fill-rule: evenodd;
      }
    </style>
  </defs>
  <path d="M15.758,1.687 L9.429,8.016 L15.727,14.314 C16.118,14.704 16.118,15.336 15.727,15.727 C15.532,15.923 15.276,16.020 15.021,16.020 C14.765,16.020 14.509,15.923 14.313,15.727 L8.016,9.430 L1.718,15.727 C1.328,16.118 0.695,16.118 0.304,15.727 C0.109,15.532 0.011,15.276 0.011,15.020 C0.011,14.764 0.109,14.508 0.304,14.314 L6.602,8.016 L0.273,1.687 C-0.117,1.297 -0.117,0.664 0.273,0.273 C0.664,-0.117 1.296,-0.117 1.687,0.273 L8.015,6.602 L14.344,0.273 C14.735,-0.117 15.368,-0.117 15.758,0.273 C16.149,0.663 16.149,1.296 15.758,1.687 Z" class="cls-1"/>
</svg>
