<svg xmlns="http://www.w3.org/2000/svg" xmlns:xlink="http://www.w3.org/1999/xlink" preserveAspectRatio="xMidYMid" width="160.406" height="66.125" viewBox="0 0 160.406 66.125">
  <defs>
    <style>
      .cls-1 {
        fill: #e13c3a;
        fill-rule: evenodd;
      }
    </style>
  </defs>
  <path d="M154.150,37.107 L154.150,16.424 L160.421,16.424 L160.421,37.107 L154.150,37.107 ZM145.427,37.107 L134.375,37.107 L134.375,16.424 L140.646,16.424 L140.646,22.936 L145.427,22.936 C150.269,22.936 152.877,26.161 152.877,30.005 C152.877,33.882 150.269,37.107 145.427,37.107 ZM144.620,28.393 L140.646,28.393 L140.646,31.649 L144.620,31.649 C145.675,31.649 146.514,31.122 146.514,30.005 C146.514,28.920 145.675,28.393 144.620,28.393 ZM131.594,59.268 L127.842,55.516 L131.594,51.764 L135.346,55.516 L131.594,59.268 ZM124.755,29.199 L117.335,29.199 L117.335,37.107 L111.064,37.107 L111.064,16.424 L117.335,16.424 L117.335,23.742 L124.755,23.742 L124.755,16.424 L131.025,16.424 L131.025,37.107 L124.755,37.107 L124.755,29.199 ZM102.716,37.107 L92.441,37.107 L92.441,40.386 L86.170,40.386 L86.170,31.959 C88.033,31.618 89.244,30.781 89.740,26.843 L91.014,16.424 L107.187,16.424 L107.187,31.649 L108.987,31.649 L108.987,40.386 L102.716,40.386 L102.716,37.107 ZM100.916,21.881 L96.663,21.881 L95.980,27.308 C95.763,29.138 95.018,30.564 93.962,31.649 L100.916,31.649 L100.916,21.881 ZM104.119,9.519 L100.407,9.519 L100.407,5.539 L96.698,-0.015 L100.673,-0.015 L102.264,2.923 L103.855,-0.015 L107.831,-0.015 L104.119,5.539 L104.119,9.519 ZM93.919,9.519 L87.556,9.519 L87.556,-0.015 L93.654,-0.015 C96.570,-0.015 97.131,3.804 94.936,4.643 C97.539,5.194 97.631,9.519 93.919,9.519 ZM92.227,2.103 L91.003,2.103 L91.003,3.692 L92.227,3.692 C93.421,3.692 93.421,2.103 92.227,2.103 ZM92.493,5.546 L91.003,5.546 L91.003,7.400 L92.493,7.400 C93.818,7.400 93.818,5.546 92.493,5.546 ZM84.374,9.924 C83.452,9.924 82.705,9.178 82.705,8.258 C82.705,7.338 83.452,6.592 84.374,6.592 C85.295,6.592 86.041,7.338 86.041,8.258 C86.041,9.178 85.295,9.924 84.374,9.924 ZM81.191,9.519 L77.479,9.519 L77.479,2.898 L74.828,2.898 L74.828,-0.015 L83.842,-0.015 L83.842,2.898 L81.191,2.898 L81.191,9.519 ZM68.178,10.048 C64.884,10.048 63.131,8.154 63.131,6.075 L63.131,-0.015 L66.887,-0.015 L66.887,2.898 L64.942,2.898 L68.178,7.268 L71.415,2.898 L69.503,2.898 L69.503,-0.015 L73.229,-0.015 L73.229,6.075 C73.229,8.154 71.304,10.048 68.178,10.048 ZM56.559,21.881 L52.306,21.881 L51.623,27.308 C50.630,35.463 46.625,37.479 41.814,37.479 L41.814,31.959 C43.583,31.959 44.887,30.781 45.384,26.843 L46.657,16.424 L62.830,16.424 L62.830,37.107 L56.559,37.107 L56.559,21.881 ZM58.887,9.519 L55.175,9.519 L55.175,2.898 L52.523,2.898 L52.523,-0.015 L61.538,-0.015 L61.538,2.898 L58.887,2.898 L58.887,9.519 ZM33.899,34.688 L26.449,34.688 L25.704,37.107 L19.715,37.107 L18.595,37.107 L12.078,37.107 L7.422,29.820 L6.273,31.370 L6.273,37.107 L0.002,37.107 L0.002,16.424 L6.273,16.424 L6.273,24.176 L11.706,16.424 L19.374,16.424 L11.551,26.036 L18.969,36.094 L26.232,16.424 L34.117,16.424 L41.754,37.107 L34.645,37.107 L33.899,34.688 ZM30.174,22.563 L28.125,29.231 L32.223,29.231 L30.174,22.563 ZM7.999,55.516 L4.247,59.268 L0.495,55.516 L4.247,51.764 L7.999,55.516 ZM20.204,55.516 L16.452,59.268 L12.700,55.516 L16.452,51.764 L20.204,55.516 ZM32.408,55.516 L28.656,59.268 L24.904,55.516 L28.656,51.764 L32.408,55.516 ZM48.997,44.753 C54.450,44.753 57.192,47.913 58.439,50.763 L53.016,53.272 C52.487,51.662 50.867,50.268 48.997,50.268 C45.974,50.268 43.949,52.560 43.949,55.441 C43.949,58.322 45.974,60.614 48.997,60.614 C50.867,60.614 52.487,59.220 53.016,57.609 L58.439,60.088 C57.223,62.845 54.450,66.129 48.997,66.129 C42.484,66.129 37.561,61.792 37.561,55.441 C37.561,49.059 42.484,44.753 48.997,44.753 ZM62.612,55.503 L63.889,45.094 L80.124,45.094 L80.124,65.757 L73.829,65.757 L73.829,50.546 L69.561,50.546 L68.875,55.967 C67.877,64.115 63.858,66.129 59.028,66.129 L59.028,60.614 C60.804,60.614 62.113,59.437 62.612,55.503 ZM72.824,16.424 L83.875,16.424 L83.875,37.107 L77.604,37.107 L77.604,30.595 L75.339,30.595 L72.482,37.107 L65.342,37.107 L69.098,29.788 C67.453,28.982 65.373,27.091 65.373,23.525 C65.373,19.649 67.981,16.424 72.824,16.424 ZM73.786,25.137 L77.604,25.137 L77.604,21.881 L73.786,21.881 C72.730,21.881 71.737,22.378 71.737,23.494 C71.737,24.641 72.730,25.137 73.786,25.137 ZM93.739,44.753 C100.158,44.753 105.113,49.090 105.113,55.441 C105.113,61.792 100.158,66.129 93.739,66.129 C87.320,66.129 82.365,61.792 82.365,55.441 C82.365,49.090 87.320,44.753 93.739,44.753 ZM93.739,60.614 C96.762,60.614 98.725,58.322 98.725,55.441 C98.725,52.560 96.762,50.268 93.739,50.268 C90.717,50.268 88.753,52.560 88.753,55.441 C88.753,58.322 90.717,60.614 93.739,60.614 ZM123.028,50.546 L117.481,50.546 L117.481,65.757 L111.187,65.757 L111.187,50.546 L105.610,50.546 L105.610,45.094 L123.028,45.094 L123.028,50.546 ZM147.550,55.516 L143.798,59.268 L140.046,55.516 L143.798,51.764 L147.550,55.516 ZM159.755,55.516 L156.003,59.268 L152.251,55.516 L156.003,51.764 L159.755,55.516 Z" class="cls-1"/>
</svg>
