<svg xmlns="http://www.w3.org/2000/svg" width="25" height="20" viewBox="0 0 25 20">
  <metadata><?xpacket begin="﻿" id="W5M0MpCehiHzreSzNTczkc9d"?>
<x:xmpmeta xmlns:x="adobe:ns:meta/" x:xmptk="Adobe XMP Core 5.6-c140 79.160451, 2017/05/06-01:08:21        ">
   <rdf:RDF xmlns:rdf="http://www.w3.org/1999/02/22-rdf-syntax-ns#">
      <rdf:Description rdf:about=""/>
   </rdf:RDF>
</x:xmpmeta>
                                                                                                    
                                                                                                    
                                                                                                    
                                                                                                    
                                                                                                    
                                                                                                    
                                                                                                    
                                                                                                    
                                                                                                    
                                                                                                    
                                                                                                    
                                                                                                    
                                                                                                    
                                                                                                    
                                                                                                    
                                                                                                    
                                                                                                    
                                                                                                    
                                                                                                    
                                                                                                    
                           
<?xpacket end="w"?></metadata>
<defs>
    <style>
      .cls-1 {
        fill: #184074;
        fill-rule: evenodd;
      }
    </style>
  </defs>
  <path class="cls-1" d="M15.192,5.7L13.764,7.133a4.038,4.038,0,0,1,0,5.727l1.428,1.432A6.092,6.092,0,0,0,15.192,5.7Zm5.79,4.3a10.062,10.062,0,0,0-2.956-7.139L16.613,4.276a8.113,8.113,0,0,1,0,11.442l1.414,1.418A10.062,10.062,0,0,0,20.982,10ZM25,10A14.087,14.087,0,0,0,20.867.007L19.447,1.432a12.119,12.119,0,0,1,0,17.129l1.421,1.425A14.087,14.087,0,0,0,25,10ZM-0.011,13H5l6.008,6.014V0.984L5.012,7.014H-0.011V13Z"/>
</svg>
