<?xml version="1.0" encoding="utf-8"?>
<!-- Generator: Adobe Illustrator 22.0.1, SVG Export Plug-In . SVG Version: 6.00 Build 0)  -->
<svg version="1.1" id="Layer_1" xmlns="http://www.w3.org/2000/svg" xmlns:xlink="http://www.w3.org/1999/xlink" x="0px" y="0px"
	 viewBox="0 0 1920 1080" style="enable-background:new 0 0 1920 1080;" xml:space="preserve">
<style type="text/css">
	.st0{fill:#E03C3A;}
	.st1{fill:#FEBB1D;}
	.st2{fill:#194074;}
	.st3{fill:#FFFFFF;}
</style>
<g>
	<polygon class="st0" points="1247.9,539.5 1450.5,336.9 1163.1,336.9 1163.1,49.5 960.5,252.1 757.9,49.5 757.9,336.9 470.5,336.9 
		673.1,539.5 470.5,742.1 757.9,742.1 757.9,1029.5 960.5,826.9 1163.1,1029.5 1163.1,742.1 1450.5,742.1 	"/>
</g>
<polygon class="st1" points="1221,540 1405,356 1144,356 1144,95 960,279 776,95 776,356 515,356 699,540 515,724 776,724 776,985 
	960,801 1144,985 1144,724 1405,724 "/>
<polygon class="st2" points="1147.7,540 1280,407.7 1092.3,407.7 1092.3,220 960,352.3 827.7,220 827.7,407.7 640,407.7 772.3,540 
	640,672.3 827.7,672.3 827.7,860 960,727.7 1092.3,860 1092.3,672.3 1280,672.3 "/>
<g>
	<path class="st2" d="M783.7,949.2l8.5-3.5l3.5,8.5l-8.5,3.5L783.7,949.2z"/>
	<path class="st2" d="M791.5,916l15.6-6.4l6.4,15.6l-15.6,6.4L791.5,916z"/>
	<path class="st2" d="M802.8,869.3l25.5-10.5l10.5,25.5l-25.5,10.5L802.8,869.3z"/>
	<path class="st2" d="M1136.3,130.8l-8.5,3.5l-3.5-8.5l8.5-3.5L1136.3,130.8z"/>
	<path class="st2" d="M1128.5,164l-15.6,6.4l-6.4-15.6l15.6-6.4L1128.5,164z"/>
	<path class="st2" d="M1117.1,210.7l-25.5,10.5l-10.5-25.5l25.5-10.5L1117.1,210.7z"/>
</g>
<g>
	<path class="st2" d="M546,704.7l8.5,3.5l-3.5,8.5l-8.5-3.5L546,704.7z"/>
	<path class="st2" d="M575,686.7l15.6,6.4l-6.4,15.6l-15.6-6.4L575,686.7z"/>
	<path class="st2" d="M616,661.7l25.5,10.5L631,697.7l-25.5-10.5L616,661.7z"/>
	<path class="st2" d="M1374,375.3l-8.5-3.5l3.5-8.5l8.5,3.5L1374,375.3z"/>
	<path class="st2" d="M1345,393.3l-15.6-6.4l6.4-15.6l15.6,6.4L1345,393.3z"/>
	<path class="st2" d="M1303.9,418.3l-25.5-10.5l10.5-25.5l25.5,10.5L1303.9,418.3z"/>
</g>
<g>
	<path class="st2" d="M550.8,363.7l3.5,8.5l-8.5,3.5l-3.5-8.5L550.8,363.7z"/>
	<path class="st2" d="M584,371.5l6.4,15.6l-15.6,6.4l-6.4-15.6L584,371.5z"/>
	<path class="st2" d="M630.7,382.8l10.5,25.5l-25.5,10.5l-10.5-25.5L630.7,382.8z"/>
	<path class="st2" d="M1369.2,716.3l-3.5-8.5l8.5-3.5l3.5,8.5L1369.2,716.3z"/>
	<path class="st2" d="M1336,708.5l-6.4-15.6l15.6-6.4l6.4,15.6L1336,708.5z"/>
	<path class="st2" d="M1289.3,697.1l-10.5-25.5l25.5-10.5l10.5,25.5L1289.3,697.1z"/>
</g>
<g>
	<path class="st2" d="M795.3,126l-3.5,8.5l-8.5-3.5l3.5-8.5L795.3,126z"/>
	<path class="st2" d="M813.3,155l-6.4,15.6l-15.6-6.4l6.4-15.6L813.3,155z"/>
	<path class="st2" d="M838.3,196l-10.5,25.5L802.3,211l10.5-25.5L838.3,196z"/>
	<path class="st2" d="M1124.7,954l3.5-8.5l8.5,3.5l-3.5,8.5L1124.7,954z"/>
	<path class="st2" d="M1106.7,925l6.4-15.6l15.6,6.4l-6.4,15.6L1106.7,925z"/>
	<path class="st2" d="M1081.7,883.9l10.5-25.5l25.5,10.5l-10.5,25.5L1081.7,883.9z"/>
</g>
<g>
	<path class="st3" d="M1067.3,277.7l3.7,1.5l-218.3,525l-3.7-1.5L1067.3,277.7z"/>
	<path class="st3" d="M835.4,817.2l11.5-4.8l4.7,11.5l-11.5,4.8L835.4,817.2z"/>
	<path class="st3" d="M1084.6,262.8l-11.5,4.8l-4.7-11.5l11.5-4.8L1084.6,262.8z"/>
</g>
<g>
	<path class="st3" d="M1221.3,430.4l1.5,3.7L697.3,651l-1.5-3.7L1221.3,430.4z"/>
	<path class="st3" d="M675.9,647.9l11.5,4.7l-4.8,11.5l-11.5-4.7L675.9,647.9z"/>
	<path class="st3" d="M1244.1,432.1l-11.5-4.7l4.8-11.5l11.5,4.7L1244.1,432.1z"/>
</g>
<g>
	<path class="st3" d="M1222.3,647.3l-1.5,3.7l-525-218.3l1.5-3.7L1222.3,647.3z"/>
	<path class="st3" d="M682.8,415.4l4.8,11.5l-11.5,4.7l-4.8-11.5L682.8,415.4z"/>
	<path class="st3" d="M1237.2,664.6l-4.8-11.5l11.5-4.7l4.8,11.5L1237.2,664.6z"/>
</g>
<g>
	<path class="st3" d="M1069.6,801.3l-3.7,1.5L849,277.3l3.7-1.5L1069.6,801.3z"/>
	<path class="st3" d="M852.1,255.9l-4.7,11.5l-11.5-4.8l4.7-11.5L852.1,255.9z"/>
	<path class="st3" d="M1067.9,824.1l4.7-11.5l11.5,4.8l-4.7,11.5L1067.9,824.1z"/>
</g>
<g>
	<path class="st2" d="M903.8,292.5v4h4h1v8.5v4h4h7h4v-4v-6.5c0,5.7,4.6,11.5,13.5,11.5c3.7,0,7-1.1,9.5-3.2s4-5.1,4-8.3v-2l0,0v8.5
		v4h4h7h2.8c1,0.5,2,0.8,3.2,0.8c1.1,0,2.2-0.3,3.2-0.8h2.8h12c4.1,0,6.8-1.8,8.2-4.2v0.2v4h4h7h4v-4v-6.3l6.3-9.5l4.2-6.2h-7.5
		h-7.5h-2.4l-0.6,1.1l-0.6-1.1h-2.4H991h-7.5l0,0h-9.7h-3h-1h-3h-16h-1h-3h-1h-6h-0.9h-4h-6.1h-1h-3h-1h-16h-4v4V292.5z"/>
	<path class="st2" d="M824.7,361v-7.4l3.6,5.6l1.2,1.8h30.8l0.9-2.8l0.5-1.7h8.1l0.5,1.7l0.9,2.8h3h9.5v0.7h4
		c13.3,0,20.6-7.4,22.5-22.7l0.8-6.7h0.5V361H948l1-2.4l2-4.5v6.9h15.8h0.3v6.2H987V361h11.4v6.2h19.8V361h15.7v-14.9h6V361h43
		c5,0,9.3-1.6,12.4-4.3v0.3v4h19.8v-47h-19.8v16.6c-3.1-2.7-7.4-4.3-12.4-4.3h-5V314H1040v13.8h-6V314h-57.1l-2.8,23.2
		c-0.7,5.2-1.7,5.8-3.1,6.1V318v-4h-4h-20.8c-6.4,0-11.7,2.6-14.8,7v-3v-4h-38l-0.4,3.5l-2.4,19.6c-0.5,3.6-1.2,5.1-1.7,5.6
		c-0.3,0.3-0.4,0.5-1.1,0.5h-0.9l-11-29.2h-20.4l-12.1,32.7l-7.7-10.5l18.1-22.2h-24.9l-4.2,5.9V314h-19.8v47H824.7z M992.9,342.7
		c0.4-1.2,0.7-2.4,0.8-3.7l0.8-6.7h0.5v10.4L992.9,342.7L992.9,342.7z M933.9,344.5l-2.6,5.1v-8C932,342.7,932.9,343.7,933.9,344.5z
		"/>
	<path class="st2" d="M1044.7,368h-40.8v6.4c-0.1-0.1-0.3-0.3-0.4-0.4c-4.7-4.3-11-6.6-18-6.6c-6.9,0-13.3,2.4-18,6.6
		c-1.4,1.3-2.7,2.8-3.7,4.4V368h-38.1l-1.9,15.7l-1.1-2.6c-2.2-5.1-8-13.7-21.5-13.7c-14.8,0-25.6,10.2-25.6,24.1
		c0,14,10.7,24.1,25.6,24.1c6.7,0,11.5-2.3,14.9-5.1v5.1h4c13.3,0,20.7-7.4,22.5-22.7l0.8-6.7h0.5V415h19.9v-10.3
		c1,1.6,2.3,3.1,3.7,4.4c4.7,4.3,11,6.6,18,6.6s13.3-2.4,18-6.6c4.8-4.4,7.5-10.6,7.5-17.5c0-1.8-0.2-3.5-0.5-5.2h4V415h19.9v-28.7
		h10.5V368H1044.7z M901.2,385.8c1.8,0,3.3,1.5,3.8,2.9l0.9,2.8l-0.9,2.8c-0.5,1.4-2,2.9-3.8,2.9c-3.8,0-5.5-2.9-5.5-5.7
		C895.7,388.7,897.4,385.8,901.2,385.8z M923.6,385l-0.8,6.2c-0.5,3.6-1.2,5.1-1.8,5.7l-0.4-0.2l-10.2-4.7l-1-0.4l1-0.5l10.2-4.7
		L923.6,385z M985.5,385.8c2.7,0,5.4,1.8,5.4,5.8s-2.7,5.7-5.4,5.7s-5.4-1.8-5.4-5.7C980.1,387.5,982.8,385.8,985.5,385.8z"/>
	<polygon class="st2" points="1112.7,388.8 1105.7,381.8 1102.8,378.9 1100,381.8 1092.9,388.8 1091.3,390.4 1089.7,388.8 
		1082.7,381.8 1079.8,378.9 1077,381.8 1069.9,388.8 1068.3,390.4 1066.7,388.8 1059.7,381.8 1056.8,378.9 1054,381.8 1046.9,388.8 
		1044.1,391.7 1046.9,394.5 1054,401.6 1056.8,404.4 1059.7,401.6 1066.7,394.5 1068.3,392.9 1069.9,394.5 1077,401.6 1079.8,404.4 
		1082.7,401.6 1089.7,394.5 1091.3,392.9 1092.9,394.5 1100,401.6 1102.8,404.4 1105.7,401.6 1112.7,394.5 1115.6,391.7 	"/>
	<polygon class="st2" points="865.7,381.8 862.8,378.9 860,381.8 852.9,388.8 851.3,390.4 849.7,388.8 842.7,381.8 839.8,378.9 
		837,381.8 829.9,388.8 828.3,390.4 826.7,388.8 819.7,381.8 816.8,378.9 814,381.8 806.9,388.8 804.1,391.7 806.9,394.5 814,401.6 
		816.8,404.4 819.7,401.6 826.7,394.5 828.3,392.9 829.9,394.5 837,401.6 839.8,404.4 842.7,401.6 849.7,394.5 851.3,392.9 
		852.9,394.5 860,401.6 862.8,404.4 865.7,401.6 872.7,394.5 875.6,391.7 872.7,388.8 	"/>
</g>
<g>
	<path class="st3" d="M924.8,292.5V287h-17v5.5h5V305h7v-12.5H924.8z"/>
	<path class="st3" d="M966.8,292.5V287h-17v5.5h5V305h7v-12.5H966.8z"/>
	<path class="st3" d="M973.8,287h11.5c5.5,0,6.6,7.2,2.4,8.8c4.9,1,5.1,9.2-1.9,9.2h-12V287L973.8,287z M980.3,294h2.3
		c2.2,0,2.2-3,0-3h-2.3V294L980.3,294z M980.3,301h2.8c2.5,0,2.5-3.5,0-3.5h-2.8V301z"/>
	<path class="st3" d="M1005.1,297.5l7-10.5h-7.5l-3,5.5l-3-5.5h-7.5l7,10.5v7.5h7V297.5z"/>
	<path class="st3" d="M967.8,299.5c1.7,0,3.1,1.4,3.1,3.1s-1.4,3.1-3.1,3.1c-1.7,0-3.1-1.4-3.1-3.1S966.1,299.5,967.8,299.5z"/>
	<path class="st3" d="M946.8,287h-7v5.5h3.6l-6.1,8.2l-6.1-8.2h3.7V287h-7.1v11.5c0,3.9,3.3,7.5,9.5,7.5c5.9,0,9.5-3.6,9.5-7.5
		L946.8,287L946.8,287z"/>
	<path class="st3" d="M831.6,357l-8.8-13.7l-2.2,2.9V357h-11.8v-39h11.8v14.6l10.2-14.6h14.5l-14.7,18.1L846,357H831.6z"/>
	<path class="st3" d="M874.1,357l-1.4-4.6h-14l-1.4,4.6h-13.4l14.4-39h14.9l14.4,39H874.1z M865.7,329.6l-3.9,12.6h7.7L865.7,329.6z
		"/>
	<path class="st3" d="M887.6,347.3c3.3,0,5.8-2.2,6.7-9.6l2.4-19.6h30.5v39h-11.8v-28.7h-8l-1.3,10.2c-1.9,15.4-9.4,19.2-18.5,19.2
		L887.6,347.3L887.6,347.3z"/>
	<path class="st3" d="M932,357l7.1-13.8c-3.1-1.5-7-5.1-7-11.8c0-7.3,4.9-13.4,14-13.4h20.8v39h-11.8v-12.3h-4.3l-5.4,12.3L932,357
		L932,357z M955.1,334.4v-6.1h-7.2c-2,0-3.9,0.9-3.9,3c0,2.2,1.9,3.1,3.9,3.1H955.1z"/>
	<path class="st3" d="M971.2,347.3c3.5-0.6,5.8-2.2,6.7-9.6l2.4-19.6h30.5v28.7h3.4v16.5h-11.8V357H983v6.2h-11.8V347.3z
		 M985.9,346.7H999v-18.4h-8l-1.3,10.2C989.3,341.9,987.9,344.6,985.9,346.7z"/>
	<path class="st3" d="M1043.9,357v-14.9h-14V357h-11.8v-39h11.8v13.8h14V318h11.8v39H1043.9z"/>
	<path class="st3" d="M1073.9,318v12.3h9c9.1,0,14,6.1,14,13.3c0,7.3-4.9,13.4-14,13.4h-20.8v-39L1073.9,318L1073.9,318z
		 M1073.9,340.5v6.1h7.5c2,0,3.6-1,3.6-3.1c0-2-1.6-3-3.6-3H1073.9z M1099.3,357v-39h11.8v39H1099.3z"/>
	<path class="st3" d="M879.6,391.5c0-12,9.3-20.1,21.6-20.1c10.3,0,15.4,6,17.8,11.3l-10.2,4.7c-1-3-4.1-5.7-7.6-5.7
		c-5.7,0-9.5,4.3-9.5,9.8c0,5.4,3.8,9.7,9.5,9.7c3.5,0,6.6-2.6,7.6-5.7l10.2,4.7c-2.3,5.2-7.5,11.4-17.8,11.4
		C888.9,411.7,879.6,403.5,879.6,391.5z"/>
	<path class="st3" d="M920.1,401.3c3.3,0,5.8-2.2,6.8-9.6l2.4-19.6h30.6V411H948v-28.7h-8l-1.3,10.2c-1.9,15.4-9.5,19.1-18.6,19.1
		L920.1,401.3L920.1,401.3z"/>
	<path class="st3" d="M964.1,391.5c0-12,9.3-20.1,21.4-20.1c12.1,0,21.4,8.2,21.4,20.1c0,12-9.3,20.1-21.4,20.1
		C973.4,411.7,964.1,403.5,964.1,391.5z M994.9,391.5c0-5.4-3.7-9.8-9.4-9.8s-9.4,4.3-9.4,9.8c0,5.4,3.7,9.7,9.4,9.7
		C991.2,401.3,994.9,396.9,994.9,391.5z"/>
	<path class="st3" d="M1018.4,411v-28.7h-10.5V372h32.8v10.3h-10.5V411H1018.4z"/>
	<path class="st3" d="M1056.8,384.6l7.1,7.1l-7.1,7.1l-7.1-7.1L1056.8,384.6z"/>
	<path class="st3" d="M1079.8,384.6l7.1,7.1l-7.1,7.1l-7.1-7.1L1079.8,384.6z"/>
	<path class="st3" d="M1102.8,384.6l7.1,7.1l-7.1,7.1l-7.1-7.1L1102.8,384.6z"/>
	<path class="st3" d="M816.8,384.6l7.1,7.1l-7.1,7.1l-7.1-7.1L816.8,384.6z"/>
	<path class="st3" d="M839.8,384.6l7.1,7.1l-7.1,7.1l-7.1-7.1L839.8,384.6z"/>
	<path class="st3" d="M862.8,384.6l7.1,7.1l-7.1,7.1l-7.1-7.1L862.8,384.6z"/>
</g>
</svg>
